<svg width="64" height="64" viewBox="0 0 64 64" fill="none" xmlns="http://www.w3.org/2000/svg">
  <g transform="matrix(1.3 0 0 1.3 -9 -7)">
    <path
      d="M13 23C13 19.686 15.686 17 19 17H23V21H20C18.343 21 17 22.343 17 24V44C17 45.657 18.343 47 20 47H24V51H19C15.686 51 13 48.314 13 45V23Z"
      fill="#111827"
      fill-opacity="0.34"
    />
    <path
      fill-rule="evenodd"
      clip-rule="evenodd"
      d="M25 15C21.686 15 19 17.686 19 21V43C19 46.314 21.686 49 25 49H39.5C41.091 49 42.617 48.368 43.742 47.243L46.243 44.742C47.368 43.617 48 42.091 48 40.5V21C48 17.686 45.314 15 42 15H25ZM28 27C28 26.448 28.448 26 29 26H39C39.552 26 40 26.448 40 27C40 27.552 39.552 28 39 28H29C28.448 28 28 27.552 28 27ZM29 33C28.448 33 28 33.448 28 34C28 34.552 28.448 35 29 35H36C36.552 35 37 34.552 37 34C37 33.448 36.552 33 36 33H29ZM39 49V43.5C39 41.567 40.567 40 42.5 40H48C47.884 41.3 47.317 42.523 46.391 43.446L42.444 47.391C41.521 48.314 40.301 48.881 39.003 48.998L39 49Z"
      fill="#111827"
    />
    <path
      fill-rule="evenodd"
      clip-rule="evenodd"
      d="M25 13C25 9.686 27.686 7 31 7H36C39.314 7 42 9.686 42 13V19H25V13ZM29 13V15H38V13C38 11.343 36.657 10 35 10H32C30.343 10 29 11.343 29 13Z"
      fill="#111827"
    />
  </g>
</svg>
